# xmcd
#
# Track frame offsets:
#	150
#	17827
#	34487
#	51750
#	66200
#	83225
#	99012
#	116730
#	132807
#	146372
#	159622
#	177259
#	193902
#	211220
#	225737
#	242710
#	258722
#	276657
#	292635
#	306074
#
# Disc length: 4256 seconds
#
# Revision: 1
# Processed by: cddbd v1.5.1PL2 Copyright (c) Steve Scherf et al.
# Submitted via: audiograbber 1.83.01
#
DISCID=23109e14
DTITLE=Various Artist - THC9809
DYEAR=1900
DGENRE=Karaoke
TTITLE0=Reba McEntire - Forever Love (vocals)
TTITLE1=Shania Twain - Honey I'm Home (vocals)
TTITLE2=Wilkinsons, The - 26 Cents (vocals)
TTITLE3=Jo Dee Messina - I'm Alright (vocals)
TTITLE4=Dixie Chicks - Wide Open Spaces (vocals)
TTITLE5=LeAnn Rimes - Nothin' New Under The Moon (vocals)
TTITLE6=Lee Ann Womack - A Little Past Little Rock (vocals)
TTITLE7=Lari White - Stepping Stone (vocals)
TTITLE8=Pam Tillis - I Said A Prayer (vocals)
TTITLE9=Sara Evans - The Cryin' Game (vocals)
TTITLE10=Reba McEntire - Forever Love
TTITLE11=Shania Twain - Honey I'm Home
TTITLE12=Wilkinsons, The - 26 Cents
TTITLE13=Jo Dee Messina - I'm Alright
TTITLE14=Dixie Chicks - Wide Open Spaces
TTITLE15=LeAnn Rimes - Nothin' New Under The Moon
TTITLE16=Lee Ann Womack - A Little Past Little Rock
TTITLE17=Lari White - Stepping Stone
TTITLE18=Pam Tillis - I Said A Prayer
TTITLE19=Sara Evans - The Cryin' Game
EXTD=
EXTT0=
EXTT1=
EXTT2=
EXTT3=
EXTT4=
EXTT5=
EXTT6=
EXTT7=
EXTT8=
EXTT9=
EXTT10=
EXTT11=
EXTT12=
EXTT13=
EXTT14=
EXTT15=
EXTT16=
EXTT17=
EXTT18=
EXTT19=
PLAYORDER=
